<?xml version="1.0" encoding="UTF-8" standalone="no"?>
<svg width="60px" height="60px" viewBox="0 0 60 60" version="1.1" xmlns="http://www.w3.org/2000/svg" xmlns:xlink="http://www.w3.org/1999/xlink" xmlns:sketch="http://www.bohemiancoding.com/sketch/ns">
    <!-- Generator: Sketch 3.4.4 (17249) - http://www.bohemiancoding.com/sketch -->
    <title>Flower</title>
    <desc>Created with Sketch.</desc>
    <defs>
        <path d="M23.0357143,42.0624967 C24.0606271,42.6542304 24.4128773,43.9628947 23.8244022,44.9821635 L17.9228495,55.2039525 C17.3335171,56.2247063 16.0320583,56.5766212 15,55.9807621 L15,55.9807621 C13.9750872,55.3890285 13.622837,54.0803641 14.2113121,53.0610954 L20.1128647,42.8393063 C20.7021972,41.8185525 22.003656,41.4666376 23.0357143,42.0624967 L23.0357143,42.0624967 L23.0357143,42.0624967 Z M45,4.01923789 C46.0249128,4.61097155 46.377163,5.91963587 45.7886879,6.93890464 L39.8871353,17.1606937 C39.2978028,18.1814475 37.996344,18.5333624 36.9642857,17.9375033 L36.9642857,17.9375033 C35.9393729,17.3457696 35.5871227,16.0371053 36.1755978,15.0178365 L42.0771505,4.7960475 C42.6664829,3.77529374 43.9679417,3.42337877 45,4.01923789 L45,4.01923789 L45,4.01923789 Z M17.9375033,36.9642857 C18.529237,37.9891985 18.1799625,39.2986601 17.1606937,39.8871353 L6.93890464,45.7886879 C5.91815088,46.3780204 4.61509701,46.0320583 4.01923789,45 L4.01923789,45 C3.42750423,43.9750872 3.77677873,42.6656256 4.7960475,42.0771505 L15.0178365,36.1755978 C16.0385903,35.5862653 17.3416442,35.9322274 17.9375033,36.9642857 L17.9375033,36.9642857 L17.9375033,36.9642857 Z M55.9807621,15 C56.5724958,16.0249128 56.2232213,17.3343744 55.2039525,17.9228495 L44.9821635,23.8244022 C43.9614097,24.4137347 42.6583558,24.0677726 42.0624967,23.0357143 L42.0624967,23.0357143 C41.470763,22.0108015 41.8200375,20.7013399 42.8393063,20.1128647 L53.0610954,14.2113121 C54.0818491,13.6219796 55.384903,13.9679417 55.9807621,15 L55.9807621,15 L55.9807621,15 Z M30,43.9285714 C31.1834673,43.9285714 32.1428571,44.8857829 32.1428571,46.0627331 L32.1428571,57.8658384 C32.1428571,59.0445033 31.1917182,60 30,60 L30,60 C28.8165327,60 27.8571429,59.0427886 27.8571429,57.8658384 L27.8571429,46.0627331 C27.8571429,44.8840681 28.8082818,43.9285714 30,43.9285714 L30,43.9285714 L30,43.9285714 Z M30,0 C31.1834673,2.1739942e-16 32.1428571,0.957211426 32.1428571,2.13416163 L32.1428571,13.9372669 C32.1428571,15.1159319 31.1917182,16.0714286 30,16.0714286 L30,16.0714286 C28.8165327,16.0714286 27.8571429,15.1142171 27.8571429,13.9372669 L27.8571429,2.13416163 C27.8571429,0.955496708 28.8082818,-2.18915089e-16 30,0 L30,0 L30,0 Z M36.9642857,42.0624967 C37.9891985,41.470763 39.2986601,41.8200375 39.8871353,42.8393063 L45.7886879,53.0610954 C46.3780204,54.0818491 46.0320583,55.384903 45,55.9807621 L45,55.9807621 C43.9750872,56.5724958 42.6656256,56.2232213 42.0771505,55.2039525 L36.1755978,44.9821635 C35.5862653,43.9614097 35.9322274,42.6583558 36.9642857,42.0624967 L36.9642857,42.0624967 L36.9642857,42.0624967 Z M15,4.01923789 C16.0249128,3.42750423 17.3343744,3.77677873 17.9228495,4.7960475 L23.8244022,15.0178365 C24.4137347,16.0385903 24.0677726,17.3416442 23.0357143,17.9375033 L23.0357143,17.9375033 C22.0108015,18.529237 20.7013399,18.1799625 20.1128647,17.1606937 L14.2113121,6.93890464 C13.6219796,5.91815088 13.9679417,4.61509701 15,4.01923789 L15,4.01923789 L15,4.01923789 Z M42.0624967,36.9642857 C42.6542304,35.9393729 43.9628947,35.5871227 44.9821635,36.1755978 L55.2039525,42.0771505 C56.2247063,42.6664829 56.5766212,43.9679417 55.9807621,45 L55.9807621,45 C55.3890285,46.0249128 54.0803641,46.377163 53.0610954,45.7886879 L42.8393063,39.8871353 C41.8185525,39.2978028 41.4666376,37.996344 42.0624967,36.9642857 L42.0624967,36.9642857 L42.0624967,36.9642857 Z M4.01923789,15 C4.61097155,13.9750872 5.91963587,13.622837 6.93890464,14.2113121 L17.1606937,20.1128647 C18.1814475,20.7021972 18.5333624,22.003656 17.9375033,23.0357143 L17.9375033,23.0357143 C17.3457696,24.0606271 16.0371053,24.4128773 15.0178365,23.8244022 L4.7960475,17.9228495 C3.77529374,17.3335171 3.42337877,16.0320583 4.01923789,15 L4.01923789,15 L4.01923789,15 Z M43.9285714,30 C43.9285714,28.8165327 44.8857829,27.8571429 46.0627331,27.8571429 L57.8658384,27.8571429 C59.0445033,27.8571429 60,28.8082818 60,30 L60,30 C60,31.1834673 59.0427886,32.1428571 57.8658384,32.1428571 L46.0627331,32.1428571 C44.8840681,32.1428571 43.9285714,31.1917182 43.9285714,30 L43.9285714,30 L43.9285714,30 Z M0,30 C0,28.8165327 0.957211426,27.8571429 2.13416163,27.8571429 L13.9372669,27.8571429 C15.1159319,27.8571429 16.0714286,28.8082818 16.0714286,30 L16.0714286,30 C16.0714286,31.1834673 15.1142171,32.1428571 13.9372669,32.1428571 L2.13416163,32.1428571 C0.955496708,32.1428571 0,31.1917182 0,30 L0,30 L0,30 Z" id="path-1"></path>
    </defs>
    <g id="WeUi" stroke="none" stroke-width="1" fill="none" fill-rule="evenodd" sketch:type="MSPage">
        <g id="Toast_Loading" sketch:type="MSArtboardGroup" transform="translate(-341.000000, -517.000000)">
            <g id="Toast/Toast_loading" sketch:type="MSLayerGroup" transform="translate(255.000000, 454.000000)">
                <g id="Flower" transform="translate(86.000000, 63.000000)">
                    <mask id="mask-2" sketch:name="flower" fill="white">
                        <use xlink:href="#path-1"></use>
                    </mask>
                    <use id="flower" fill="#D8D8D8" sketch:type="MSShapeGroup" xlink:href="#path-1"></use>
                    <path d="M22.2354286,58.9777748 C38.2394117,63.2660291 54.6895204,53.7685545 58.9777748,37.7645714 C63.2660291,21.7605883 53.7685545,5.31047956 37.7645714,1.02222521 C21.7605883,-3.26602914 5.31047956,6.23144555 1.02222521,22.2354286 C-3.26602914,38.2394117 6.23144555,54.6895204 22.2354286,58.9777748 L22.2354286,58.9777748 Z" id="gradient" fill="" sketch:type="MSShapeGroup" mask="url(#mask-2)">
                        <g transform="translate(30.000000, 30.000000) rotate(-345.000000) translate(-30.000000, -30.000000) "></g>
                    </path>
                </g>
            </g>
        </g>
    </g>
</svg>