<?xml version="1.0" encoding="utf-8"?>
<!-- Generator: Adobe Illustrator 19.0.0, SVG Export Plug-In . SVG Version: 6.00 Build 0)  -->
<svg version="1.1" id="图层_1" xmlns:sketch="http://www.bohemiancoding.com/sketch/ns"
	 xmlns="http://www.w3.org/2000/svg" xmlns:xlink="http://www.w3.org/1999/xlink" x="0px" y="0px" viewBox="-490.2 487.8 50.3 50.3"
	 style="enable-background:new -490.2 487.8 50.3 50.3;" xml:space="preserve">
<style type="text/css">
	.st0{fill:#FBF9FE;stroke:#09BB07;stroke-width:2;}
	.st1{fill:#09BB07;}
</style>
<title>info_circle_small</title>
<desc>Created with Sketch.</desc>
<g id="WeUi" sketch:type="MSPage">
	<g id="Icons" transform="translate(-40.000000, -940.000000)" sketch:type="MSArtboardGroup">
		<g id="Icon_small" transform="translate(40.000000, 854.000000)" sketch:type="MSLayerGroup">
			<g id="info_circle_small" transform="translate(0.000000, 86.000000)" sketch:type="MSShapeGroup">
				<circle id="Oval" class="st0" cx="-465" cy="513" r="23"/>
				<path id="i" class="st1" d="M-464.6,500c-1.4,0-2.2,1-2.2,2.1s0.9,2.1,2.1,2.1s2.1-0.9,2.1-2.1C-462.5,501.2-463,500-464.6,500
					L-464.6,500z M-465.9,510.8v12.4c0,0.1-0.1,0.2-0.2,0.2l-2.7,0.1c0,0.6,0,1.2,0,1.8c1.4,0,2.8,0,4.2,0h4.4c0-0.6,0-1.2,0-1.8
					l-2.8-0.1c0-4.3,0.1-10.8,0.1-15.2c0-0.1,0-0.1-0.1-0.1c-0.3,0-4.4,0.8-6.1,1c0,0.5,0,1.2,0,1.7L-465.9,510.8z"/>
			</g>
		</g>
	</g>
</g>
</svg>
