<?xml version="1.0" encoding="utf-8"?>
<!-- Generator: Adobe Illustrator 19.0.0, SVG Export Plug-In . SVG Version: 6.00 Build 0)  -->
<svg version="1.1" id="图层_1" xmlns:sketch="http://www.bohemiancoding.com/sketch/ns"
	 xmlns="http://www.w3.org/2000/svg" xmlns:xlink="http://www.w3.org/1999/xlink" x="0px" y="0px" viewBox="-490.4 487.6 50.9 50.9"
	 style="enable-background:new -490.4 487.6 50.9 50.9;" xml:space="preserve">
<style type="text/css">
	.st0{fill:#FFFFFF;stroke:#09BB07;stroke-width:2;}
	.st1{fill:#09BB07;}
</style>
<title>Success_cricle</title>
<desc>Created with Sketch.</desc>
<g id="WeUi" sketch:type="MSPage">
	<g id="Icons" transform="translate(-131.000000, -854.000000)" sketch:type="MSArtboardGroup">
		<g id="Icon_small" transform="translate(40.000000, 854.000000)" sketch:type="MSLayerGroup">
			<g id="Success_cricle" transform="translate(91.000000, 0.000000)" sketch:type="MSShapeGroup">
				<path id="Oval_cricle" class="st0" d="M-465,536c12.7,0,23-10.3,23-23c0-12.7-10.3-23-23-23s-23,10.3-23,23
					C-488,525.7-477.7,536-465,536z"/>
				<path class="st1" d="M-478,513.7c0,0.5,7.8,7.8,7.8,7.8c0.4,0.4,1,0.4,1.4,0c0,0,15-15,16.3-16.3c0.4-1.2-0.9-1.3-1.2-1.2
					c-0.3,0.1-15.5,13-15.5,13c-0.4,0.4-1.1,0.4-1.5,0l-5.7-4.7C-477.6,512.4-478,513.2-478,513.7z"/>
			</g>
		</g>
	</g>
</g>
</svg>
