<?xml version="1.0" encoding="UTF-8" standalone="no"?>
<svg width="181px" height="200px" viewBox="0 0 181 200" version="1.1" xmlns="http://www.w3.org/2000/svg" xmlns:xlink="http://www.w3.org/1999/xlink" xmlns:sketch="http://www.bohemiancoding.com/sketch/ns">
    <!-- Generator: Sketch 3.4.4 (17249) - http://www.bohemiancoding.com/sketch -->
    <title>warn</title>
    <desc>Created with Sketch.</desc>
    <defs></defs>
    <g id="WeUi" stroke="none" stroke-width="1" fill="none" fill-rule="evenodd" sketch:type="MSPage">
        <g id="Icons" sketch:type="MSArtboardGroup" transform="translate(-520.000000, -604.000000)" fill="#FFBE00">
            <g id="Icon_large" sketch:type="MSLayerGroup" transform="translate(30.000000, 354.000000)">
                <g id="warn" transform="translate(490.000000, 250.000000)" sketch:type="MSShapeGroup">
                    <path d="M90.4452869,152.112528 C96.1215997,152.112528 100.72316,147.510967 100.72316,141.834654 C100.72316,136.158342 96.1215997,131.556781 90.4452869,131.556781 C84.7689741,131.556781 80.1674134,136.158342 80.1674134,141.834654 C80.1674134,147.510967 84.7689741,152.112528 90.4452869,152.112528 L90.4452869,152.112528 Z M80.409236,53.4447786 C80.2756811,51.1743439 81.9915988,49.3337928 84.2777713,49.3337928 L96.6128024,49.3337928 C98.8828904,49.3337928 100.61531,51.1672445 100.481338,53.4447786 L96.8538337,115.112347 C96.7202787,117.382782 94.7655691,119.223333 92.5051513,119.223333 L88.3854224,119.223333 C86.1172665,119.223333 84.1707127,117.389881 84.0367401,115.112347 L80.409236,53.4447786 L80.409236,53.4447786 Z M180.436147,114.219188 C174.318437,169.697822 108.206889,200 90.4452869,200 C72.6908901,200 6.62577157,169.243059 0.46190216,114.219188 L0,114.219188 L0,20.7647089 L90.4452869,0 L180.890574,20.7647089 L180.890574,114.219188 L180.436147,114.219188 L180.436147,114.219188 Z"></path>
                </g>
            </g>
        </g>
    </g>
</svg>