<?xml version="1.0" encoding="UTF-8" standalone="no"?>
<svg width="200px" height="200px" viewBox="0 0 200 200" version="1.1" xmlns="http://www.w3.org/2000/svg" xmlns:xlink="http://www.w3.org/1999/xlink" xmlns:sketch="http://www.bohemiancoding.com/sketch/ns">
    <!-- Generator: Sketch 3.4.4 (17249) - http://www.bohemiancoding.com/sketch -->
    <title>warn</title>
    <desc>Created with Sketch.</desc>
    <defs></defs>
    <g id="WeUi" stroke="none" stroke-width="1" fill="none" fill-rule="evenodd" sketch:type="MSPage">
        <g id="Icons" sketch:type="MSArtboardGroup" transform="translate(-520.000000, -354.000000)" fill="#F43530">
            <g id="Icon_large" sketch:type="MSLayerGroup" transform="translate(30.000000, 354.000000)">
                <g id="warn" transform="translate(490.000000, 0.000000)" sketch:type="MSShapeGroup">
                    <path d="M100,200 C155.228475,200 200,155.228475 200,100 C200,44.771525 155.228475,0 100,0 C44.771525,0 0,44.771525 0,100 C0,155.228475 44.771525,200 100,200 Z M100,154.347826 C106.003095,154.347826 110.869565,149.481356 110.869565,143.478261 C110.869565,137.475166 106.003095,132.608696 100,132.608696 C93.9969049,132.608696 89.1304348,137.475166 89.1304348,143.478261 C89.1304348,149.481356 93.9969049,154.347826 100,154.347826 Z M89.2478536,47.6482934 C89.183005,46.545867 90.0231631,45.6521739 91.1366338,45.6521739 L108.863366,45.6521739 C109.971359,45.6521739 110.816937,46.5468464 110.752146,47.6482934 L106.639158,117.569098 C106.574309,118.671524 105.625208,119.565217 104.512281,119.565217 L95.4877192,119.565217 C94.377926,119.565217 93.4256331,118.670545 93.3608421,117.569098 L89.2478536,47.6482934 Z"></path>
                </g>
            </g>
        </g>
    </g>
</svg>