<?xml version="1.0" encoding="UTF-8" standalone="no"?>
<svg width="46px" height="46px" viewBox="0 0 46 46" version="1.1" xmlns="http://www.w3.org/2000/svg" xmlns:xlink="http://www.w3.org/1999/xlink" xmlns:sketch="http://www.bohemiancoding.com/sketch/ns">
    <!-- Generator: Sketch 3.4.4 (17249) - http://www.bohemiancoding.com/sketch -->
    <title>warn_small</title>
    <desc>Created with Sketch.</desc>
    <defs></defs>
    <g id="WeUi" stroke="none" stroke-width="1" fill="none" fill-rule="evenodd" sketch:type="MSPage">
        <g id="Icons" sketch:type="MSArtboardGroup" transform="translate(-572.000000, -854.000000)" fill="#F43530">
            <g id="Icon_small" sketch:type="MSLayerGroup" transform="translate(40.000000, 854.000000)">
                <g id="warn" transform="translate(532.000000, 0.000000)" sketch:type="MSShapeGroup">
                    <path d="M23,46 C35.7025492,46 46,35.7025492 46,23 C46,10.2974508 35.7025492,0 23,0 C10.2974508,0 0,10.2974508 0,23 C0,35.7025492 10.2974508,46 23,46 Z M23,35.5 C24.3807119,35.5 25.5,34.3807119 25.5,33 C25.5,31.6192881 24.3807119,30.5 23,30.5 C21.6192881,30.5 20.5,31.6192881 20.5,33 C20.5,34.3807119 21.6192881,35.5 23,35.5 Z M20.6176533,12.5001062 C20.5526752,11.395478 21.3938998,10.5 22.5048815,10.5 L23.4951185,10.5 C24.602384,10.5 25.4476436,11.3900584 25.3823467,12.5001062 L24.6176533,25.4998938 C24.5526752,26.604522 23.5999011,27.5 22.4989566,27.5 L23.5010434,27.5 C22.3958977,27.5 21.4476436,26.6099416 21.3823467,25.4998938 L20.6176533,12.5001062 Z" id="warn_small"></path>
                </g>
            </g>
        </g>
    </g>
</svg>